# xmcd
#
# Track frame offsets:
#	182
#	15290
#	31365
#	44855
#	55060
#	68660
#	81975
#	98015
#	114212
#	126645
#	139550
#	150657
#	166182
#	180755
#	191130
#	207282
#
# Disc length: 2933 seconds
#
# Revision: 1
# Processed by: cddbd v1.5.1PL0 Copyright (c) Steve Scherf et al.
# Submitted via: EasyCDDAExtractor 7.0.5.4
#
DISCID=ce0b7310
DTITLE=Billie Jo Spears - What I've Got In Mind
DYEAR=1988
DGENRE=Country
TTITLE0=You Could Know As Much About A Stranger
TTITLE1=I Never Loved Anyone More
TTITLE2=I Can Only Judge Your Future By His Past
TTITLE3=Too Much Is Not Enough
TTITLE4=Yesterday
TTITLE5=What The World Needs Now Is Love
TTITLE6=I Fall To Pieces
TTITLE7=Blanket On The Ground
TTITLE8=What I've Got In Mind
TTITLE9=There's More To A Tear Than Meets The Eye
TTITLE10=Every Day I Have To Cry
TTITLE11=Sweet Music Man
TTITLE12=Husband And Wives
TTITLE13=Here Comes My Baby Back Again
TTITLE14=Slow Movin' Outlaw
TTITLE15='57 Chevrolet
EXTD=
EXTT0=
EXTT1=
EXTT2=
EXTT3=
EXTT4=
EXTT5=
EXTT6=
EXTT7=
EXTT8=
EXTT9=
EXTT10=
EXTT11=
EXTT12=
EXTT13=
EXTT14=
EXTT15=
PLAYORDER=
